<svg id="Capa_1" data-name="Capa 1" xmlns="http://www.w3.org/2000/svg" viewBox="0 0 179.87 193.26"><defs><style>.cls-1{stroke:#000;stroke-miterlimit:10;stroke-width:3px;}</style></defs><title>Buscar</title><path class="cls-1" d="M127.1,109.05l-3.66,3.15L106,91.84c.36-.49.72-1,1.07-1.51a53.42,53.42,0,1,0-15.49,15l16.91,19.7-3.69,3.17,58.09,67.68,22.34-19.18ZM97.47,84.84a42.73,42.73,0,1,1,6.73-32A42.63,42.63,0,0,1,97.47,84.84Zm61.76,67.49a3.06,3.06,0,0,1-4.31-.33l-23.86-27.8a3.06,3.06,0,0,1,.33-4.31,3,3,0,0,1,1.43-.68,3.06,3.06,0,0,1,2.89,1L159.57,148A3,3,0,0,1,159.23,152.33Z" transform="translate(-7.43 -4.76)"/></svg>