<svg id="Capa_1" data-name="Capa 1" xmlns="http://www.w3.org/2000/svg" viewBox="0 0 129.61 189.21"><defs><style>.cls-1{stroke:#000;stroke-miterlimit:10;}</style></defs><title>Eliminar</title><path d="M157.4,14l-23.51,4.14A14.23,14.23,0,0,0,117.43,6.75L76,14.05A14.25,14.25,0,0,0,64.44,30.39l-23.5,4.14a6.62,6.62,0,0,0-4.24,2.7,6.58,6.58,0,0,0,6.52,10.25L159.69,26.94a6.51,6.51,0,0,0,4.24-2.71A6.56,6.56,0,0,0,157.4,14ZM72.13,28.56A7.28,7.28,0,0,1,78,20.13l39.59-7a7.27,7.27,0,0,1,8.43,5.9Z" transform="translate(-35.5 -6.53)"/><path class="cls-1" d="M158.05,50.89H43.69a5.24,5.24,0,0,0-5.23,5.62l9.71,133.87a5.24,5.24,0,0,0,5.23,4.86h94.95a5.22,5.22,0,0,0,5.21-4.86l9.72-133.87A5.24,5.24,0,0,0,158.05,50.89ZM72.48,178a9.28,9.28,0,0,1-9.92-8.64L56.31,78A9.3,9.3,0,0,1,65,68.12q.33,0,.66,0a9.3,9.3,0,0,1,9.26,8.67l6.26,91.34A9.3,9.3,0,0,1,72.48,178Zm38.25-9.17a9.31,9.31,0,1,1-18.61,0V77.29a9.31,9.31,0,1,1,18.61,0ZM146.53,78l-6.24,91.34a9.31,9.31,0,0,1-18.57-1.27L128,76.76a9.3,9.3,0,0,1,9.26-8.67q.33,0,.66,0A9.29,9.29,0,0,1,146.53,78Z" transform="translate(-35.5 -6.53)"/></svg>