<svg id="Capa_1" data-name="Capa 1" xmlns="http://www.w3.org/2000/svg" viewBox="0 0 180.8 195.56"><defs><style>.cls-1{stroke:#000;stroke-miterlimit:10;}</style></defs><title>Personalizar</title><path class="cls-1" d="M75.82-2.49h44.42a12,12,0,0,1,12,12V175.75a6,6,0,0,1-6,6H69.82a6,6,0,0,1-6-6V9.51a12,12,0,0,1,12-12Z" transform="translate(76.76 -44.54) rotate(41.13)"/><path class="cls-1" d="M56.53,187.58,13.84,190.4a3.88,3.88,0,0,1-4.13-3.62l-2.82-42.7a3.88,3.88,0,0,1,6.43-3.17l45.51,39.87A3.89,3.89,0,0,1,56.53,187.58Z" transform="translate(-6.38 -2.18)"/><rect class="cls-1" x="4.78" y="190.18" width="175.52" height="4.88"/></svg>